<svg width="14" height="14" viewBox="0 0 14 14" fill="none" xmlns="http://www.w3.org/2000/svg">
<path d="M10.5 7.58268H7.58329V10.4993C7.58329 10.6541 7.52183 10.8024 7.41244 10.9118C7.30304 11.0212 7.15467 11.0827 6.99996 11.0827C6.84525 11.0827 6.69688 11.0212 6.58748 10.9118C6.47808 10.8024 6.41663 10.6541 6.41663 10.4993V7.58268H3.49996C3.34525 7.58268 3.19688 7.52122 3.08748 7.41183C2.97808 7.30243 2.91663 7.15406 2.91663 6.99935C2.91663 6.84464 2.97808 6.69627 3.08748 6.58687C3.19688 6.47747 3.34525 6.41602 3.49996 6.41602H6.41663V3.49935C6.41663 3.34464 6.47808 3.19627 6.58748 3.08687C6.69688 2.97747 6.84525 2.91602 6.99996 2.91602C7.15467 2.91602 7.30304 2.97747 7.41244 3.08687C7.52183 3.19627 7.58329 3.34464 7.58329 3.49935V6.41602H10.5C10.6547 6.41602 10.803 6.47747 10.9124 6.58687C11.0218 6.69627 11.0833 6.84464 11.0833 6.99935C11.0833 7.15406 11.0218 7.30243 10.9124 7.41183C10.803 7.52122 10.6547 7.58268 10.5 7.58268Z" fill="#001F3F"/>
</svg>
