<svg width="30" height="30" viewBox="0 0 30 30" fill="none" xmlns="http://www.w3.org/2000/svg">
<path d="M22.9101 28.1245C21.7664 28.1245 20.1597 27.7108 17.7539 26.3666C14.8283 24.726 12.5654 23.2114 9.65565 20.3092C6.85018 17.5055 5.48494 15.6903 3.5742 12.2133C1.41561 8.28754 1.78358 6.22973 2.19491 5.35024C2.68475 4.29907 3.4078 3.67035 4.34237 3.04633C4.8732 2.69854 5.43495 2.4004 6.02049 2.15571C6.07909 2.13051 6.13358 2.10649 6.18221 2.08481C6.47225 1.95414 6.9117 1.75668 7.46834 1.96762C7.83983 2.10707 8.17147 2.39243 8.69061 2.90512C9.75526 3.95512 11.2101 6.2936 11.7469 7.44203C12.1072 8.21606 12.3457 8.727 12.3463 9.30004C12.3463 9.97094 12.0088 10.4883 11.5992 11.0467C11.5224 11.1516 11.4463 11.2518 11.3724 11.3491C10.9265 11.935 10.8287 12.1043 10.8931 12.4067C11.0238 13.0143 11.9982 14.8231 13.5996 16.4209C15.201 18.0188 16.9576 18.9317 17.5676 19.0618C17.8828 19.1291 18.0556 19.0272 18.6603 18.5655C18.7471 18.4993 18.8361 18.4307 18.9293 18.3622C19.5539 17.8975 20.0473 17.5688 20.7023 17.5688H20.7058C21.276 17.5688 21.764 17.8161 22.5726 18.2239C23.6273 18.7559 26.0361 20.192 27.0926 21.2579C27.6064 21.7758 27.893 22.1063 28.033 22.4772C28.2439 23.0356 28.0453 23.4733 27.9158 23.7663C27.8941 23.8149 27.8701 23.8682 27.8449 23.9274C27.5983 24.5119 27.2984 25.0725 26.949 25.602C26.3262 26.5336 25.6951 27.2549 24.6416 27.7454C24.1006 28.0013 23.5086 28.1309 22.9101 28.1245Z" fill="#001F3F"/>
</svg>
