<svg width="34" height="34" viewBox="0 0 34 34" fill="none" xmlns="http://www.w3.org/2000/svg">
<path fill-rule="evenodd" clip-rule="evenodd" d="M17 2.83398C22.4768 2.83398 26.9167 7.27384 26.9167 12.7506C26.9167 14.5571 26.435 16.2498 25.5897 17.7096C25.0261 18.6827 22.1628 23.6408 17 32.584C11.837 23.6408 8.97379 18.6827 8.41031 17.7096C7.56496 16.2498 7.08325 14.5571 7.08325 12.7506C7.08325 7.27384 11.5231 2.83398 16.9999 2.83398M17 8.50063C14.6528 8.50063 12.75 10.4034 12.75 12.7506C12.75 15.0978 14.6528 17.0006 17 17.0006C19.3472 17.0006 21.25 15.0979 21.25 12.7506C21.25 10.4034 19.3472 8.50063 17 8.50063Z" fill="#001F3F"/>
</svg>
